<svg xmlns="http://www.w3.org/2000/svg" viewBox="0 0 432 195.21"><defs><style>.cls-1{fill:#fff;}.cls-2{fill:#ed1c24;}</style></defs><g id="Layer_2" data-name="Layer 2"><g id="Layer_1-2" data-name="Layer 1"><g id="Layer_2-2" data-name="Layer 2"><g id="Layer_1-2-2" data-name="Layer 1-2"><g id="Layer_2-2-2" data-name="Layer 2-2"><g id="Layer_1-2-2-2" data-name="Layer 1-2-2"><g id="Layer_2-2-2-2" data-name="Layer 2-2-2"><g id="Layer_1-2-2-2-2" data-name="Layer 1-2-2-2"><path class="cls-1" d="M31.57,91.61A19.58,19.58,0,0,1,32.82,84a10.75,10.75,0,0,1,3.67-4.68A14.55,14.55,0,0,1,42.33,77a43.45,43.45,0,0,1,7.8-.64H69.57a32.56,32.56,0,0,1,8.79,1A11.52,11.52,0,0,1,83.42,80a8.35,8.35,0,0,1,2.3,4.25,25.53,25.53,0,0,1,.56,5.58V91.2H73.59a6.12,6.12,0,0,0-.44-2.5,3.28,3.28,0,0,0-1.28-1.43,5.45,5.45,0,0,0-2-.64,25.51,25.51,0,0,0-2.76-.14H53a19.9,19.9,0,0,0-4,.35,4.59,4.59,0,0,0-2.5,1.34,5.8,5.8,0,0,0-1.29,2.7,20.93,20.93,0,0,0-.37,4.4v5.23a21.21,21.21,0,0,0,.37,4.43,5.73,5.73,0,0,0,1.29,2.68A4.52,4.52,0,0,0,49,109a18.55,18.55,0,0,0,4,.35H66.8a20.34,20.34,0,0,0,2.47-.14,6.71,6.71,0,0,0,2.15-.61A3.69,3.69,0,0,0,73,107.15a4.73,4.73,0,0,0,.58-2.44v-1.23H57.52V94.75h29v12a16.9,16.9,0,0,1-1.22,7.1,7.78,7.78,0,0,1-3.76,3.79,18,18,0,0,1-6.46,1.51c-2.62.19-5.75.28-9.4.29H50.13a42.48,42.48,0,0,1-7.8-.64,14.28,14.28,0,0,1-5.84-2.36,10.61,10.61,0,0,1-3.67-4.65,19.53,19.53,0,0,1-1.25-7.6Z"/><path class="cls-1" d="M93.38,91.61A19.58,19.58,0,0,1,94.63,84a10.6,10.6,0,0,1,3.66-4.68A14.59,14.59,0,0,1,104.14,77a43.45,43.45,0,0,1,7.8-.64h20.72a43.45,43.45,0,0,1,7.8.64,14.6,14.6,0,0,1,5.85,2.36A10.76,10.76,0,0,1,150,84a19.57,19.57,0,0,1,1.26,7.57v12.61a19.51,19.51,0,0,1-1.26,7.6,10.52,10.52,0,0,1-3.66,4.65,14.46,14.46,0,0,1-5.85,2.36,42.48,42.48,0,0,1-7.8.64H111.94a42.48,42.48,0,0,1-7.8-.64,14.46,14.46,0,0,1-5.85-2.36,10.52,10.52,0,0,1-3.66-4.65,19.53,19.53,0,0,1-1.25-7.6Zm13.26,8.56a21.11,21.11,0,0,0,.3,3.89,5.46,5.46,0,0,0,1.1,2.62,4.68,4.68,0,0,0,2.27,1.46,12.36,12.36,0,0,0,3.73.46h16.52a12.36,12.36,0,0,0,3.73-.46,4.68,4.68,0,0,0,2.27-1.46,5.46,5.46,0,0,0,1.1-2.62,21.11,21.11,0,0,0,.3-3.89V95.63a18.18,18.18,0,0,0-.32-3.53,6.34,6.34,0,0,0-1.2-2.64A5.48,5.48,0,0,0,134,87.77a12.29,12.29,0,0,0-4.13-.58H114.73a12.29,12.29,0,0,0-4.13.58,5.48,5.48,0,0,0-2.44,1.69A6.4,6.4,0,0,0,107,92.1a18.18,18.18,0,0,0-.32,3.53Z"/><path class="cls-1" d="M171.88,76.83h49.24V87.3H203V119H190V87.3H171.88Z"/><path class="cls-1" d="M226.77,76.83h46.09v9.78H239.69v6.75h31.43v8.73H239.69v6.75h33.93V119H226.77Z"/><path class="cls-1" d="M280.48,91.61A19.56,19.56,0,0,1,281.74,84a10.6,10.6,0,0,1,3.66-4.68A14.59,14.59,0,0,1,291.25,77a43.45,43.45,0,0,1,7.8-.64h15.19a58.76,58.76,0,0,1,11,.82,13.58,13.58,0,0,1,6.29,2.67,8.69,8.69,0,0,1,2.79,4.89,34.35,34.35,0,0,1,.58,7.51H322V91.09A3.15,3.15,0,0,0,320.41,88a10,10,0,0,0-4.48-.81H301.84a12.29,12.29,0,0,0-4.13.58,5.48,5.48,0,0,0-2.44,1.69,6.34,6.34,0,0,0-1.2,2.64,18.18,18.18,0,0,0-.32,3.53v4.54a23.08,23.08,0,0,0,.29,3.89,5.62,5.62,0,0,0,1.11,2.62,4.68,4.68,0,0,0,2.27,1.46,12.36,12.36,0,0,0,3.73.46h13.79a29,29,0,0,0,3.61-.17,5.1,5.1,0,0,0,2.33-.79,3.43,3.43,0,0,0,1.25-1.74,10.26,10.26,0,0,0,.37-3.12h12.92v4a19.13,19.13,0,0,1-.61,5,8.86,8.86,0,0,1-2.3,4,11.37,11.37,0,0,1-4.71,2.71,25.81,25.81,0,0,1-7.91,1H299.05a42.48,42.48,0,0,1-7.8-.64,14.46,14.46,0,0,1-5.85-2.36,10.52,10.52,0,0,1-3.66-4.65,19.51,19.51,0,0,1-1.26-7.6Z"/><path class="cls-1" d="M343.22,76.83h12.92v15h27.24v-15H396.3V119H383.38V103H356.14v16H343.22Z"/><path class="cls-2" d="M246.17,171.13a73.47,73.47,0,0,1-61.82-33.72H0l143.15,4.86a95.58,95.58,0,0,0,8.25,13.32l15.48-4.12A82.76,82.76,0,0,0,176,160.6l-4.11,15.48a96.19,96.19,0,0,0,19,11l11.34-11.29a81.85,81.85,0,0,0,12.49,3.33l4.17,15.45a95.22,95.22,0,0,0,22,0l4.1-15.49a81.85,81.85,0,0,0,12.49-3.33L268.86,187a97.48,97.48,0,0,0,19-11l-4.07-15.28A73.21,73.21,0,0,1,246.17,171.13Z"/><path class="cls-2" d="M184.35,57.76h0A73.56,73.56,0,0,1,283.8,34.38l4.07-15.28a97.48,97.48,0,0,0-19-11L257.52,19.41A82.22,82.22,0,0,0,245,16.08L240.86.63a96.35,96.35,0,0,0-22,0l-4.17,15.45a81.85,81.85,0,0,0-12.49,3.33L190.9,8.12a97.48,97.48,0,0,0-19,11L176,34.59a83.64,83.64,0,0,0-9.13,9.12L151.4,39.6a95.37,95.37,0,0,0-8.25,13.3L0,57.76Z"/><path class="cls-1" d="M275.49,57.75H432L291.72,51.38a64.84,64.84,0,0,0-78.81-9.54A58.91,58.91,0,0,1,275.49,57.75Zm0,79.68a58.91,58.91,0,0,1-62.57,15.89,64.83,64.83,0,0,0,78.84-9.57l140.18-6.36H275.46Z"/></g></g></g></g></g></g></g></g></svg>